# xmcd
#
# Track frame offsets: 
#        150
#        18080
#        33263
#        50016
#        71482
#        87459
#        104556
#        117725
#        134736
#        151012
#        166066
#
# Disc length: 2399 seconds
#
# Revision: 0
# Processed by: cddbd v1.5.1PL0 Copyright (c) Steve Scherf et al.
# Submitted via: ExactAudioCopy v0.95b3
#
DISCID=91095d0b
DTITLE=Aaron Lines - Waitin' On The Wonderful
DYEAR=2005
DGENRE=Country
TTITLE0=Waitin' On The Wonderful
TTITLE1=It Takes A Man
TTITLE2=The American Way
TTITLE3=Twenty Years Late
TTITLE4=Lights Of My Hometown
TTITLE5=Lovers On The Run
TTITLE6=Seeing Things
TTITLE7=I Wanna Be That Man
TTITLE8=Good Liar
TTITLE9=Dance To The Radio
TTITLE10=If I Could Do It All Again
EXTD=
EXTT0=
EXTT1=
EXTT2=
EXTT3=
EXTT4=
EXTT5=
EXTT6=
EXTT7=
EXTT8=
EXTT9=
EXTT10=
PLAYORDER=
